<svg width="144" height="44" viewBox="0 0 144 44" fill="none" xmlns="http://www.w3.org/2000/svg">
<path d="M0.6 4.96L2.94 13.18L10.38 11.14V43H19.98V0.999997H11.58L0.6 4.96ZM55.6392 37.9C58.6992 33.88 60.1992 28.6 60.1992 22C60.1992 15.4 58.6992 10.12 55.6392 6.16C52.6392 2.14 48.4392 0.159997 43.0992 0.159997C37.7592 0.159997 33.5592 2.14 30.4992 6.16C27.4992 10.12 25.9992 15.4 25.9992 22C25.9992 28.6 27.4992 33.88 30.4992 37.9C33.5592 41.86 37.7592 43.84 43.0992 43.84C48.4392 43.84 52.6392 41.86 55.6392 37.9ZM35.5992 22C35.5992 13.66 38.1192 9.52 43.0992 9.52C48.0792 9.52 50.5992 13.66 50.5992 22C50.5992 30.34 48.0792 34.48 43.0992 34.48C38.1192 34.48 35.5992 30.34 35.5992 22ZM93.4322 37.9C96.4922 33.88 97.9922 28.6 97.9922 22C97.9922 15.4 96.4922 10.12 93.4322 6.16C90.4322 2.14 86.2322 0.159997 80.8922 0.159997C75.5522 0.159997 71.3522 2.14 68.2922 6.16C65.2922 10.12 63.7922 15.4 63.7922 22C63.7922 28.6 65.2922 33.88 68.2922 37.9C71.3522 41.86 75.5522 43.84 80.8922 43.84C86.2322 43.84 90.4322 41.86 93.4322 37.9ZM73.3922 22C73.3922 13.66 75.9122 9.52 80.8922 9.52C85.8722 9.52 88.3922 13.66 88.3922 22C88.3922 30.34 85.8722 34.48 80.8922 34.48C75.9122 34.48 73.3922 30.34 73.3922 22ZM121.833 10.36C121.833 7.42 120.813 5.02 118.833 3.1C116.853 1.12 114.393 0.159997 111.453 0.159997C108.513 0.159997 105.993 1.18 104.013 3.16C102.033 5.14 101.013 7.54 101.013 10.36C101.013 13.18 102.033 15.64 104.013 17.62C105.993 19.6 108.513 20.56 111.453 20.56C114.393 20.56 116.853 19.6 118.833 17.62C120.813 15.64 121.833 13.18 121.833 10.36ZM109.953 38.74L137.073 8.68L133.113 6.4L105.993 36.4L109.953 38.74ZM114.633 10.36C114.873 13.12 110.913 14.86 109.113 12.7C107.193 10.66 108.513 7.06 111.393 7.06C113.313 7.06 114.633 8.44 114.633 10.36ZM140.253 40.78C142.233 38.8 143.253 36.34 143.253 33.52C143.253 30.7 142.233 28.3 140.253 26.32C138.273 24.34 135.813 23.32 132.873 23.32C129.933 23.32 127.413 24.34 125.433 26.32C123.453 28.3 122.433 30.7 122.433 33.52C122.433 36.34 123.453 38.8 125.433 40.78C127.413 42.76 129.933 43.72 132.873 43.72C135.813 43.72 138.273 42.76 140.253 40.78ZM136.053 33.52C136.293 36.28 132.333 38.02 130.533 35.86C128.613 33.82 129.933 30.22 132.813 30.22C134.733 30.22 136.053 31.6 136.053 33.52Z" fill="#FFD600"/>
<path d="M0.6 4.96L2.94 13.18L10.38 11.14V43H19.98V0.999997H11.58L0.6 4.96ZM55.6392 37.9C58.6992 33.88 60.1992 28.6 60.1992 22C60.1992 15.4 58.6992 10.12 55.6392 6.16C52.6392 2.14 48.4392 0.159997 43.0992 0.159997C37.7592 0.159997 33.5592 2.14 30.4992 6.16C27.4992 10.12 25.9992 15.4 25.9992 22C25.9992 28.6 27.4992 33.88 30.4992 37.9C33.5592 41.86 37.7592 43.84 43.0992 43.84C48.4392 43.84 52.6392 41.86 55.6392 37.9ZM35.5992 22C35.5992 13.66 38.1192 9.52 43.0992 9.52C48.0792 9.52 50.5992 13.66 50.5992 22C50.5992 30.34 48.0792 34.48 43.0992 34.48C38.1192 34.48 35.5992 30.34 35.5992 22ZM93.4322 37.9C96.4922 33.88 97.9922 28.6 97.9922 22C97.9922 15.4 96.4922 10.12 93.4322 6.16C90.4322 2.14 86.2322 0.159997 80.8922 0.159997C75.5522 0.159997 71.3522 2.14 68.2922 6.16C65.2922 10.12 63.7922 15.4 63.7922 22C63.7922 28.6 65.2922 33.88 68.2922 37.9C71.3522 41.86 75.5522 43.84 80.8922 43.84C86.2322 43.84 90.4322 41.86 93.4322 37.9ZM73.3922 22C73.3922 13.66 75.9122 9.52 80.8922 9.52C85.8722 9.52 88.3922 13.66 88.3922 22C88.3922 30.34 85.8722 34.48 80.8922 34.48C75.9122 34.48 73.3922 30.34 73.3922 22ZM121.833 10.36C121.833 7.42 120.813 5.02 118.833 3.1C116.853 1.12 114.393 0.159997 111.453 0.159997C108.513 0.159997 105.993 1.18 104.013 3.16C102.033 5.14 101.013 7.54 101.013 10.36C101.013 13.18 102.033 15.64 104.013 17.62C105.993 19.6 108.513 20.56 111.453 20.56C114.393 20.56 116.853 19.6 118.833 17.62C120.813 15.64 121.833 13.18 121.833 10.36ZM109.953 38.74L137.073 8.68L133.113 6.4L105.993 36.4L109.953 38.74ZM114.633 10.36C114.873 13.12 110.913 14.86 109.113 12.7C107.193 10.66 108.513 7.06 111.393 7.06C113.313 7.06 114.633 8.44 114.633 10.36ZM140.253 40.78C142.233 38.8 143.253 36.34 143.253 33.52C143.253 30.7 142.233 28.3 140.253 26.32C138.273 24.34 135.813 23.32 132.873 23.32C129.933 23.32 127.413 24.34 125.433 26.32C123.453 28.3 122.433 30.7 122.433 33.52C122.433 36.34 123.453 38.8 125.433 40.78C127.413 42.76 129.933 43.72 132.873 43.72C135.813 43.72 138.273 42.76 140.253 40.78ZM136.053 33.52C136.293 36.28 132.333 38.02 130.533 35.86C128.613 33.82 129.933 30.22 132.813 30.22C134.733 30.22 136.053 31.6 136.053 33.52Z" fill="#024E82"/>
</svg>
