<svg width="25" height="24" viewBox="0 0 25 24" fill="none" xmlns="http://www.w3.org/2000/svg">
<path d="M3.52539 4H5.52539L5.79812 7M5.79812 7L6.34779 13.0464C6.44643 14.1314 7.39535 14.9379 8.48207 14.8602L18.9161 14.1149C19.8552 14.0479 20.6204 13.3349 20.7536 12.4029L21.5254 7H5.79812Z" stroke="#14181F" stroke-width="2" stroke-linecap="round" stroke-linejoin="round"/>
<path d="M9.52539 20C10.0777 20 10.5254 19.5523 10.5254 19C10.5254 18.4477 10.0777 18 9.52539 18C8.97311 18 8.52539 18.4477 8.52539 19C8.52539 19.5523 8.97311 20 9.52539 20Z" stroke="#14181F" stroke-width="2" stroke-linecap="round" stroke-linejoin="round"/>
<path d="M17.5254 20C18.0777 20 18.5254 19.5523 18.5254 19C18.5254 18.4477 18.0777 18 17.5254 18C16.9731 18 16.5254 18.4477 16.5254 19C16.5254 19.5523 16.9731 20 17.5254 20Z" stroke="#14181F" stroke-width="2" stroke-linecap="round" stroke-linejoin="round"/>
</svg>
