<svg width="25" height="24" viewBox="0 0 25 24" fill="none" xmlns="http://www.w3.org/2000/svg">
<path d="M18.7627 2H15.7627C14.4366 2 13.1648 2.52678 12.2272 3.46447C11.2895 4.40215 10.7627 5.67392 10.7627 7V10H7.7627V14H10.7627V22H14.7627V14H17.7627L18.7627 10H14.7627V7C14.7627 6.73478 14.8681 6.48043 15.0556 6.29289C15.2431 6.10536 15.4975 6 15.7627 6H18.7627V2Z" stroke="#D9D9D9" stroke-width="2" stroke-linecap="round" stroke-linejoin="round"/>
<path d="M18.7627 2H15.7627C14.4366 2 13.1648 2.52678 12.2272 3.46447C11.2895 4.40215 10.7627 5.67392 10.7627 7V10H7.7627V14H10.7627V22H14.7627V14H17.7627L18.7627 10H14.7627V7C14.7627 6.73478 14.8681 6.48043 15.0556 6.29289C15.2431 6.10536 15.4975 6 15.7627 6H18.7627V2Z" stroke="white" stroke-opacity="0.8" stroke-width="2" stroke-linecap="round" stroke-linejoin="round"/>
</svg>
