<svg width="40" height="144" viewBox="0 0 40 144" fill="none" xmlns="http://www.w3.org/2000/svg">
<path d="M0 71.8409C0 99.2884 5.44 123.792 13.84 139.545C16.48 144.477 23.6 144.477 26.16 139.545C34.56 123.792 40 99.2884 40 71.8409C40 38.1083 31.84 14.0818 20 0C8.16 14.0818 0 38.1083 0 71.8409Z" fill="#66C0EC"/>
<path d="M37.2001 63.4872C36.8801 56.9635 32.7201 51.5535 26.8801 49.3259V34.0508H23.7601V48.4508C23.0401 48.3712 22.3201 48.2917 21.6001 48.2121V34.0508H18.4001V48.2121C17.6801 48.2121 16.9601 48.2917 16.2401 48.4508V34.0508H13.1201V49.3259C7.28014 51.474 3.12014 56.9635 2.80014 63.4872C2.72014 66.2718 2.64014 69.0563 2.64014 71.8408C2.64014 80.0353 3.12014 87.9911 4.08014 95.5491C4.72014 101.118 8.32014 105.733 13.2001 108.04V126.179H16.3201V109.154C17.0401 109.313 17.7601 109.472 18.4801 109.551V126.259H21.6001V109.551C22.3201 109.472 23.0401 109.392 23.7601 109.154V126.179H26.8801V108.04C31.7601 105.733 35.2801 101.118 36.0001 95.5491C36.9601 87.9116 37.4401 79.9558 37.4401 71.8408C37.3601 68.9767 37.3601 66.1922 37.2001 63.4872Z" fill="#0A6EAB"/>
</svg>
