<?xml version="1.0" encoding="utf-8"?>
<!-- Generator: Adobe Illustrator 21.0.0, SVG Export Plug-In . SVG Version: 6.00 Build 0)  -->
<svg version="1.1" id="Layer_1" xmlns="http://www.w3.org/2000/svg" xmlns:xlink="http://www.w3.org/1999/xlink" x="0px" y="0px"
	 viewBox="0 0 90.7 396.9" style="enable-background:new 0 0 90.7 396.9;" xml:space="preserve">
<style type="text/css">
	.st0{fill:#0B6EAA;}
	.st1{fill:#E69019;}
	.st2{fill:#C4BDA4;}
	.st3{fill:#61C7CD;}
</style>
<g>
	<path class="st0" d="M0.3,181.8c0.2-11.9,0.3-23.7,0.6-35.6c0.9-27.1,2-54.2,8.2-80.7c4-17.3,9.8-33.8,20.4-48.3
		c3.7-5.1,7.9-9.7,13.1-13.3c2.1-1.4,3.6-1.5,5.7,0c9.1,6.5,15.3,15.3,20.4,25c9.4,17.8,14.2,37,16.9,56.8
		c3.8,27.1,4.6,54.5,4.7,81.9c0,5.7,0.1,11.5,0.1,17.2c-0.3,10.1-0.7,20.2-0.9,30.3c-0.5,19.1-1.5,38.2-3.2,57.2
		c-1.8,19.7-3.9,39.4-7.5,58.8c-0.1,0.6-0.4,1.1-0.7,1.7c-1.5-5.3-2.8-6.1-7.8-4.7c1.4-6.2,2.7-12.3,2.6-18.8
		c-0.2-15.7,0-31.4,0.1-47c0.7,0.2,1.4,0.4,2,0.5c0,13.2,0,26.4,0,39.6c3.3-13.8,6-27.7,5.1-41.9c0.3-1.5,0.3-2.9,0-4.4
		c0-22.2-0.2-44.4,0.3-66.6c0.1-6-2.1-10.6-5.3-16.3c0,27.5,0,54.1,0,80.6c-0.7,0.3-1.4,0.6-2,0.9C73,222.9,72.9,191,73,159.1
		c0-3.9-1.8-6.6-4.6-9.9c0,60.9,0,121,0,181.1c-0.7,0-1.3,0-2,0c0-8.4-0.1-16.8-0.1-25.2c0-3,0-6,0-9c0-0.4,0.1-0.7,0.1-1.1
		c-0.1-48.9-0.1-97.9-0.1-146.8c0-3.1-1.9-4.2-4.7-6c0,51,0,101.3,0,151.5c-0.6,0.4-1.3,0.8-1.9,1.2c0-1.6-0.1-3.2-0.1-4.9
		c0-48.7,0-97.5,0-146.2c0-2.6-0.3-4.7-3.9-5c0,63.9,0,127.7,0,191.5c-0.7,0-1.4,0-2.1,0c0-41.5,0-82.9,0-124.4
		c0-21.9-0.1-43.7,0.1-65.6c0-3.6-2.2-3.9-4.5-4c-2.8-0.1-1.4,2.4-1.5,3.6c-0.1,63.5-0.1,126.9-0.1,190.4c-0.6,0-1.2,0-1.8,0
		c0-36.5,0-73,0-109.4c0-27.1,0-54.2,0-81.3c0-3.7-0.9-4.3-4-3.3c-2.1,0.7-1.6,2.3-1.6,3.7c0,63.5,0,126.9,0,190.4
		c-0.6,0-1.2,0-1.8,0c0-63.1,0-126.2,0-189.3c0-1.1,0.9-3.4-1-3.3c-2,0.1-4.6,0.6-4.8,3.6c-0.1,0.9,0,1.7,0,2.6c0,40.3,0,80.7,0,121
		c0,10.4-0.1,20.7-0.1,31.1c-0.7-0.8-1.4-1.5-2-2.3c0-0.6,0.1-1.2,0.1-1.9c0-44.7,0-89.5,0-134.2c0-5.3,0-10.6,0-16.3
		c-4.4,2.3-6.3,4.9-6.3,9.7c0.2,59.7,0.1,119.4,0.1,179.2c-0.7,0-1.4,0-2.2,0c0-0.6,0.1-1.2,0.1-1.9c0-56.6,0-113.2,0-169.7
		c0-2.7,0-5.3,0-8c-3.4,3.6-5.4,7.3-5.4,12.1c0.1,30.6,0,61.2,0,91.8c-0.6-0.3-1.2-0.5-1.8-0.8c0-25.9,0-51.8,0-78.8
		c-1.6,3.7-4.3,5.7-4.3,9.1c0.1,23.7,0.1,47.4,0.1,71.1c-1.3,2.2-1.3,4.4,0,6.6c-0.9,12.8,1.5,25.2,4.2,37.6c0-12.2,0-24.4,0-36.6
		c0.6-0.1,1.1-0.3,1.7-0.4c0,6,0,12,0.1,18c0.2,15.8-1.5,31.7,3.6,47.1c0.1,0.3,0,0.7-0.1,1.1c-4.3-2.1-5.2-1.9-8.1,2
		c-0.9-5.1-2-10.3-2.7-15.4c-1.4-9.7-3-19.4-4-29.1c-1.1-11-1.6-22-2.4-33C1.4,229.4,1.2,205.6,0.3,181.8z M83.2,241.7
		c1.1-18.6,1-37.3,0-55.9c-0.3,0-0.7,0-1,0c0,18.6,0,37.2,0,55.9c-0.6,3.5-0.2,6.9,0.2,10.4C82.7,248.6,83,245.1,83.2,241.7z
		 M72.4,57.8C67.8,44,60.5,32,49,22.9c-2.4-1.9-4.4-2-7-0.1c-8,6-13.6,13.8-18.2,22.5c-2.2,4.2-4.3,8.5-5.8,13.7
		c4.6-3.7,5.8-3.7,9.1,0.2c0.9,1.1,1.9,1.1,3,1.1c10.2,0,20.5,0,30.7,0c1.2,0,2.3,0,3.2-1.3c2.7-3.6,4.2-3.6,8-0.7
		c0.7,6-0.7,7.3-6.9,5.9c-0.8-0.2-1.5-0.1-2.1,0.2c-5.2,2.9-10.4,5.9-16,9.1c7.4,4.2,14.3,8.1,21.2,12.1c1.7,1,3.1,1.6,5.2,0.6
		c1.9-1,4-0.4,5.2,1.6c1.1,1.8,1.1,3.5-0.3,5.2c-1.5,1.7-3.4,2.4-5.3,1.1c-1.8-1.2-3.2-0.6-4.8,0.2c-6,3-12.1,5.9-18.1,9
		c-0.9,0.4-2.2,0.5-2.4,2.2c8.1,4.1,16.2,8.2,24.3,12.3c1.5,0.8,2.5,0.2,3.8-0.5c2.4-1.2,4.5-0.5,5.8,1.8c1.1,2,0.8,4.2-1.2,5.7
		c-2.1,1.6-4.5,1.4-6-0.8c-1.3-1.9-2.8-2.1-4.7-2.1c-16.5,0-33,0-49.5,0c-1.8,0-3.2,0.1-4.4,1.9c-1.4,2.2-3.7,2.5-5.9,1
		c-2-1.4-2.6-3.4-1.4-5.6c1.3-2.2,3.2-3.1,5.7-2c1.1,0.5,2.1,1.2,3.5,0.5c8.4-4.2,16.7-8.3,25.9-12.8c-8-4-15.3-7.7-22.6-11.3
		c-1.1-0.5-1.9,0-2.8,0.5c-2.2,1.2-4.2,0.7-5.7-1.1c-1.4-1.6-1.3-3.5-0.2-5.2c1.4-2.1,3.5-2.3,5.6-1.4c1.2,0.5,2.3,0.8,3.5,0.1
		c7.4-4.2,14.8-8.3,22.4-12.7c-1.1-0.7-1.9-1.3-2.7-1.8c-4.3-2.5-8.7-4.9-13.1-7.4c-0.5-0.3-1.3-0.6-1.7-0.4
		c-4.5,2.2-7.2,0.5-8.6-5.1C3.8,99.8,5.7,141.3,4.5,182.9c5.3-3.7,8.5-9.6,8.2-16.1c-0.3-6.2,1.4-11.5,4.7-16.6
		c1.7-2.6,3.7-5.1,5.8-7.3c7.3-7.7,19.5-12.8,31.3-8.6c13.4,4.8,23.5,18.5,23.6,32.8c0,6.2,2.5,11.1,7.5,15.7
		c0.1-1.4,0.3-2.1,0.3-2.8c0-26.7,0-53.5-3.3-80.1C80.8,85.4,78.1,71.3,72.4,57.8z M45,103.8c0.9-0.4,1.9-0.8,2.7-1.2
		c6.5-3.2,13-6.3,19.5-9.5c1.3-0.7,3.2-0.7,3.3-3c0.1-2.2-1.7-2.6-3-3.3c-6.5-3.7-13-7.4-19.5-11.2c-1.8-1.1-3.2-1.2-5.1-0.1
		c-6.7,3.9-13.4,7.7-20.1,11.5c-1.3,0.7-2.7,1.2-2.6,3.2c0.1,1.9,1.5,2.2,2.6,2.7c6.6,3.3,13.1,6.6,19.7,9.9
		C43.4,103.2,44.2,103.5,45,103.8z M16.7,120.1c18.9,0,37.3,0,56.4,0c-0.9-0.7-1.2-1.1-1.6-1.3c-8.1-4.1-16.3-8.1-24.4-12.3
		c-1.9-1-3.3-0.4-4.9,0.4c-7.2,3.5-14.4,7-21.5,10.6C19.4,118.1,17.9,118.4,16.7,120.1z M27.9,61.8c-0.1,0.2-0.2,0.4-0.3,0.7
		c5.6,3.2,11.2,6.4,16.8,9.5c0.5,0.3,1.3,0.5,1.7,0.3c5.7-3.2,11.3-6.4,17-9.6c-0.1-0.3-0.2-0.5-0.3-0.8
		C51.1,61.8,39.5,61.8,27.9,61.8z M8.3,185.5c-1.6,18.6-2,37.1,0,55.7C8.3,222.6,8.3,204,8.3,185.5z"/>
	<path class="st0" d="M78.2,332.9c-1.2,11.1-4.1,21.8-7.1,32.5c-1.8,6.4-4,12.6-7,18.5c-3.4,6.6-8.1,11-16.3,10.1
		c-1.5-0.2-3-0.2-4.5,0c-8.3,1-13.1-3.4-16.5-10.3C20,369.8,16.8,355,13.7,340c-0.4-1.8-0.6-3.7-0.8-5.5c1.5,1.4,3.5,2.7,5.2,1.6
		c2.6-1.7,4.3-0.4,6.1,1c-0.2,6.9,3.4,12.8,6.1,19c0-4.9,0-9.8,0-14.7c0.6,0.1,1.1,0.3,1.7,0.4c0.2,0.3,0.3,0.6,0.5,0.9
		c0,4.8,0,9.6,0,14.4c-1.8,1-3.2,3.1-5.9,1.6c-2.3-1.2-4.4-0.2-5.6,2.2c-1.1,2.2-0.5,4.2,1.5,5.5c2.2,1.4,4.4,1.2,5.9-0.9
		c1-1.4,2.2-1.8,3.8-1.8c8.5,0,16.9,0,25.4,0c1.6,0,2.7,0.2,3.8,1.7c1.5,2.1,3.8,2.3,6,0.9c2.1-1.4,2.4-3.6,1.4-5.6
		c-1.2-2.4-3.4-3.3-6-1.9c-1.5,0.8-2.6,0.6-3.5-0.7c0-5.4,0-10.7,0-16.1c0.5-0.8,1.2-1.1,2.1-1.4c-0.1,4.5,0,8.9,0.6,14.4
		c2-6.3,4.6-11.5,4.3-17.3c1.3-1.1,2.3-2.9,4.3-1.9C74.2,337.4,76.4,335.7,78.2,332.9z"/>
	<path class="st1" d="M32,341.8c-0.6-0.1-1.1-0.3-1.7-0.4c-1.7-1.8-4-3-6.1-4.3c-1.8-1.4-3.5-2.7-6.1-1c-1.7,1.1-3.7-0.2-5.2-1.6
		c-0.7-1.2-0.8-2.5-0.7-3.8c2.9-3.8,3.8-4.1,8.1-2c0.4,0.7,0.8,1.3,1.7,1.5c0.7,0,1.4,0,2.2,0c2.1,0,4.1,0,6.2,0c0.7,0,1.4,0,2.1,0
		c2,0,3.9,0,5.9,0c0.6,0,1.2,0,1.8,0c1.9,0,3.7,0,5.6,0c0.6,0,1.2,0,1.8,0c2,0,3.9,0,5.9,0c0.7,0,1.4,0,2.1,0c1.3,0,2.6,0,3.9,0
		c0.7,0,1.3,0,2,0c1.7,0,3.3,0,5,0c0.7,0,1.3,0,2,0c1.2-0.2,1.3-1.5,2-2.1c4.9-1.4,6.3-0.5,7.8,4.7c0,0,0-0.1,0-0.1
		c-1.8,2.9-4,4.5-7.6,2.8c-2-1-3.1,0.9-4.3,1.9c-2,0.4-3.5,1.7-4.9,3c-0.8,0.3-1.6,0.6-2.1,1.4c-1.5,0.4-2.7,1.3-3.8,2.4
		c-0.9,0.2-1.7,0.6-2.2,1.4c-1.9,1-3.7,1.9-5.6,2.9c-0.2-0.2-0.3-0.4-0.5-0.6c0.1-0.2,0.2-0.4,0.3-0.7c2-1.3,4-2.5,5.9-3.8
		c0.7-0.5,1.4-1,2.1-1.4c1.3-0.8,2.6-1.6,3.9-2.4c0.7-0.5,1.3-0.9,2-1.4c1.2-0.8,2.6-1.5,3.7-2.4c0.8-0.6,1.9-1.3,1.4-2.7
		c-0.5-1.5-1.7-1.6-3-1.5c-0.7,0-1.5,0.1-2.2,0.2c-0.7,0-1.3,0-2,0c-1.3,0-2.6,0-4,0c-0.7,0-1.4,0-2,0c-2,0-4,0-5.9,0
		c-0.6,0-1.2,0-1.7,0c-1.9,0-3.8,0-5.7,0c-0.6,0-1.2,0-1.7,0c-2,0-4,0-5.9,0c-0.7,0-1.4,0-2,0c-1.7,0-3.5-0.3-5.2-0.1
		c-1.9,0.2-3,0.9-1.1,2.9c1.8,1.8,3.8,3.1,6.1,4c0.6,0.7,1.1,1.3,2.1,1.4c0,0.4,0.1,0.8,0.1,1.2C32.3,341.6,32.2,341.7,32,341.8z"/>
	<path class="st1" d="M72.4,57.8c5.6,13.5,8.4,27.7,10.1,42.1c3.3,26.6,3.4,53.3,3.3,80.1c0,0.7-0.1,1.4-0.3,2.8
		c-5-4.5-7.5-9.5-7.5-15.7c0-14.2-10.2-28-23.6-32.8c-11.9-4.3-24,0.8-31.3,8.6c-2.1,2.3-4.1,4.7-5.8,7.3
		c-3.3,5.1-5.1,10.4-4.7,16.6c0.4,6.5-2.8,12.5-8.2,16.1c1.2-41.6-0.8-83,13.1-124c1.4,5.6,4.1,7.3,8.6,5.1c0.4-0.2,1.2,0.1,1.7,0.4
		c4.4,2.4,8.7,4.9,13.1,7.4c0.8,0.5,1.6,1.1,2.7,1.8c-7.7,4.3-15.1,8.5-22.4,12.7c-1.2,0.7-2.3,0.5-3.5-0.1
		c-2.1-0.9-4.2-0.7-5.6,1.4c-1.2,1.7-1.2,3.6,0.2,5.2c1.5,1.8,3.5,2.3,5.7,1.1c0.9-0.5,1.7-1,2.8-0.5c7.3,3.7,14.6,7.3,22.6,11.3
		c-9.1,4.5-17.5,8.6-25.9,12.8c-1.4,0.7-2.3,0-3.5-0.5c-2.5-1.1-4.4-0.2-5.7,2c-1.2,2.2-0.6,4.2,1.4,5.6c2.2,1.5,4.5,1.3,5.9-1
		c1.2-1.8,2.6-1.9,4.4-1.9c16.5,0,33,0,49.5,0c1.9,0,3.4,0.2,4.7,2.1c1.4,2.1,3.8,2.3,6,0.8c2-1.5,2.3-3.6,1.2-5.7
		c-1.2-2.2-3.3-3-5.8-1.8c-1.3,0.6-2.3,1.2-3.8,0.5c-8.1-4.2-16.2-8.3-24.3-12.3c0.2-1.7,1.5-1.8,2.4-2.2c6-3,12.1-5.9,18.1-9
		c1.6-0.8,3-1.4,4.8-0.2c1.9,1.3,3.8,0.6,5.3-1.1c1.4-1.6,1.5-3.4,0.3-5.2c-1.3-2-3.3-2.6-5.2-1.6c-2.1,1-3.5,0.4-5.2-0.6
		c-6.9-4-13.9-7.9-21.2-12.1c5.6-3.2,10.8-6.1,16-9.1c0.7-0.4,1.3-0.4,2.1-0.2c6.1,1.4,7.6,0.1,6.9-5.9C72.1,58,72.3,57.9,72.4,57.8
		z"/>
	<path class="st1" d="M72,58.1c-3.9-2.9-5.3-2.8-8,0.7c-1,1.3-2,1.3-3.2,1.3c-10.2,0-20.5,0-30.7,0c-1.1,0-2.1,0-3-1.1
		c-3.2-3.9-4.5-3.9-9.1-0.2c1.5-5.2,3.5-9.5,5.8-13.7C28.4,36.6,34,28.8,42,22.8c2.6-1.9,4.5-1.8,7,0.1C60.5,32,67.8,44,72.4,57.8
		C72.3,57.9,72.1,58,72,58.1z"/>
	<path class="st2" d="M45.7,330.3c-1.9,0-3.7,0-5.6,0c0-63.5,0-126.9,0-190.4c0-1.4-0.5-3,1.6-3.7c3.1-1,4-0.3,4,3.3
		c0,27.1,0,54.2,0,81.3C45.7,257.3,45.7,293.8,45.7,330.3z"/>
	<path class="st2" d="M53.4,330.3c-2,0-3.9,0-5.9,0c0-63.5,0-126.9,0.1-190.4c0-1.2-1.3-3.7,1.5-3.6c2.2,0.1,4.5,0.4,4.5,4
		c-0.2,21.9-0.1,43.7-0.1,65.6C53.4,247.4,53.4,288.8,53.4,330.3z"/>
	<path class="st2" d="M38.3,330.3c-2,0-3.9,0-5.9,0c-0.1-8.4-0.1-16.8-0.2-25.2c0-3,0-6,0-8.9c0-10.4,0.1-20.7,0.1-31.1
		c0-40.3,0-80.7,0-121c0-0.9,0-1.8,0-2.6c0.2-3,2.8-3.5,4.8-3.6c1.9-0.1,1,2.2,1,3.3C38.3,204.1,38.3,267.2,38.3,330.3z"/>
	<path class="st2" d="M30.3,330.3c-2.1,0-4.1,0-6.2,0c0-59.7,0.1-119.4-0.1-179.2c0-4.7,1.9-7.3,6.3-9.7c0,5.7,0,11,0,16.3
		c0,44.7,0,89.5,0,134.2c0,0.6-0.1,1.2-0.1,1.9c-4.1,0.1-5.2,1.1-5.3,4.9c0,1.2,0,2.5,0,3.7c0.1,3.9,1.4,4.9,5.3,4.6
		C30.3,314.9,30.3,322.6,30.3,330.3z"/>
	<path class="st2" d="M22,330.3c-0.9-0.2-1.3-0.9-1.7-1.5c0-0.4,0.2-0.8,0.1-1.1c-5.1-15.4-3.4-31.4-3.6-47.1c-0.1-6-0.1-12-0.1-18
		c2.6-2.7,2.5-5.3,0-8c0-30.6,0.1-61.2,0-91.8c0-4.8,2-8.5,5.4-12.1c0,2.7,0,5.3,0,8c0,56.6,0,113.2,0,169.7
		C22.1,329,22,329.7,22,330.3z"/>
	<path class="st1" d="M45,103.8c-0.8-0.4-1.6-0.7-2.4-1.1c-6.6-3.3-13.2-6.6-19.7-9.9c-1.2-0.6-2.5-0.9-2.6-2.7
		c-0.1-2,1.3-2.5,2.6-3.2c6.7-3.8,13.5-7.5,20.1-11.5c1.9-1.1,3.3-1,5.1,0.1c6.4,3.8,13,7.4,19.5,11.2c1.3,0.8,3.1,1.1,3,3.3
		c-0.1,2.3-2,2.3-3.3,3c-6.5,3.2-13,6.4-19.5,9.5C46.9,103,46,103.4,45,103.8z"/>
	<path class="st2" d="M70.4,328.2c-0.7,0.6-0.8,1.9-2,2.1c0-60.1,0-120.2,0-181.1c2.7,3.3,4.6,6,4.6,9.9c0,31.9,0.1,63.7,0.1,95.6
		c-2.1,2.6-1.9,5.1,0,7.7c-0.1,15.7-0.3,31.4-0.1,47C73.1,315.9,71.8,322,70.4,328.2z"/>
	<path class="st2" d="M59.4,330.3c-1.3,0-2.6,0-3.9,0c0-63.8,0-127.6,0-191.5c3.7,0.3,3.9,2.4,3.9,5c0,48.7,0,97.5,0,146.2
		c0,1.6,0.1,3.2,0.1,4.9c-1.3,3.8-1.3,7.6,0,11.5C59.5,314.3,59.4,322.3,59.4,330.3z"/>
	<path class="st2" d="M61.5,293.7c0-50.3,0-100.5,0-151.5c2.9,1.8,4.7,2.9,4.7,6c0,48.9,0.1,97.9,0.1,146.8c0,0.4-0.1,0.7-0.1,1.1
		C64.9,294.7,63.5,293.6,61.5,293.7z"/>
	<path class="st1" d="M16.7,120.1c1.2-1.6,2.7-2,4-2.6c7.2-3.6,14.4-7,21.5-10.6c1.6-0.8,3-1.4,4.9-0.4c8.1,4.2,16.3,8.2,24.4,12.3
		c0.4,0.2,0.7,0.6,1.6,1.3C54,120.1,35.6,120.1,16.7,120.1z"/>
	<path class="st2" d="M75.1,253.9c0-26.5,0-53.1,0-80.6c3.2,5.7,5.5,10.3,5.3,16.3c-0.4,22.2-0.2,44.4-0.3,66.6
		C78.8,254.8,77.2,253.8,75.1,253.9z"/>
	<path class="st2" d="M10.8,255.3c0-23.7-0.1-47.4-0.1-71.1c0-3.4,2.6-5.4,4.3-9.1c0,27,0,52.9,0,78.8
		C13.4,253.9,12.1,254.6,10.8,255.3z"/>
	<path class="st1" d="M27.9,61.8c11.6,0,23.3,0,34.9,0c0.1,0.3,0.2,0.5,0.3,0.8c-5.7,3.2-11.3,6.5-17,9.6c-0.4,0.2-1.2,0-1.7-0.3
		c-5.6-3.1-11.2-6.3-16.8-9.5C27.7,62.2,27.8,62,27.9,61.8z"/>
	<path class="st2" d="M80.2,260.6c0.9,14.3-1.8,28.1-5.1,41.9c0-13.2,0-26.4,0-39.6C77.2,263,78.9,262.3,80.2,260.6z"/>
	<path class="st2" d="M15,262.9c0,12.2,0,24.4,0,36.6c-2.7-12.4-5.1-24.8-4.2-37.6C12,262.7,13.5,262.9,15,262.9z"/>
	<path class="st2" d="M82.2,241.6c0-18.6,0-37.2,0-55.9c0.3,0,0.7,0,1,0c1,18.6,1.1,37.3,0,55.9C82.9,241.7,82.5,241.7,82.2,241.6z"
		/>
	<path class="st2" d="M66.4,330.3c-1.7,0-3.3,0-5,0c0-7.6,0-15.2,0.1-22.8c2.1,0.1,3.5-1.1,4.8-2.4
		C66.3,313.5,66.3,321.9,66.4,330.3z"/>
	<path class="st1" d="M66.2,305.1c-1.3,1.3-2.7,2.5-4.8,2.4c-0.7-0.4-1.3-0.8-2-1.2c-1.3-3.8-1.3-7.6,0-11.5
		c0.6-0.4,1.3-0.8,1.9-1.2c2.1-0.1,3.5,1.1,4.8,2.4C66.2,299.1,66.2,302.1,66.2,305.1z"/>
	<path class="st1" d="M30.3,307.1c-4,0.3-5.2-0.8-5.3-4.6c0-1.2,0-2.5,0-3.7c0.1-3.8,1.2-4.8,5.3-4.9c0.7,0.8,1.4,1.5,2,2.3
		c0,3,0,6,0,8.9C31.6,305.7,30.9,306.4,30.3,307.1z"/>
	<path class="st2" d="M8.3,185.5c0,18.6,0,37.1,0,55.7C6.4,222.6,6.8,204,8.3,185.5z"/>
	<path class="st1" d="M80.2,260.6c-1.3,1.7-3,2.4-5.1,2.3c-0.7-0.2-1.4-0.4-2-0.5c-1.9-2.6-2.1-5.1,0-7.7c0.7-0.3,1.4-0.6,2-0.9
		c2.1,0,3.7,0.9,5.1,2.3C80.5,257.7,80.5,259.1,80.2,260.6z"/>
	<path class="st1" d="M15,262.9c-1.5-0.1-2.9-0.2-4.2-1c-1.3-2.2-1.3-4.4,0-6.6c1.3-0.7,2.6-1.4,4.1-1.5c0.6,0.3,1.2,0.5,1.8,0.8
		c2.5,2.7,2.6,5.3,0,8C16.1,262.7,15.5,262.8,15,262.9z"/>
	<path class="st3" d="M82.2,241.6c0.3,0,0.7,0.1,1,0.1c-0.2,3.4-0.5,6.8-0.7,10.3C82,248.5,81.6,245.1,82.2,241.6z"/>
	<path class="st1" d="M32.5,342.8c-0.2-0.3-0.3-0.6-0.5-0.9c0.1-0.1,0.3-0.3,0.4-0.4c2.3,0.3,3.8,2,5.8,2.9c0.6,0.4,1.1,0.7,1.7,1.1
		c1.9,1.1,3.3,3.3,5.9,3c0.5-0.1,0.9-0.3,1.4-0.4c0.2,0.2,0.3,0.4,0.5,0.6c-1.3,1.5,0.2,2.1,1,2.7c1.4,1.1,3.1,1.9,4.6,2.8
		c0.7,0.5,1.5,1,2.2,1.5c1,1.1,2.4,1.8,3.7,2.4c1,1.3,2,1.5,3.5,0.7c2.6-1.4,4.7-0.5,6,1.9c1,2,0.8,4.3-1.4,5.6
		c-2.2,1.4-4.4,1.2-6-0.9c-1.1-1.4-2.3-1.7-3.8-1.7c-8.5,0-16.9,0-25.4,0c-1.6,0-2.8,0.3-3.8,1.8c-1.6,2.1-3.8,2.3-5.9,0.9
		c-2-1.3-2.6-3.3-1.5-5.5c1.2-2.3,3.3-3.4,5.6-2.2c2.8,1.5,4.1-0.6,5.9-1.6c0.7-0.2,1.5-0.4,2.2-0.7c0.1,1.7-1.8,1.7-2.3,2.8
		c-1.1,0.5-2.8,0.8-2.6,2.2c0.2,1.7,2,0.8,3.1,0.9c1.5,0.1,2.9,0,4.4-0.1c0.3,0,0.7,0,1,0c0.6,0,1.2,0,1.8,0c1.9,0,3.8,0,5.7,0
		c0.6,0,1.2,0,1.7,0c1.9,0,3.9,0,5.8,0c1.9,0,3.7,0.1,5.6,0.1c0.6,0,1.3-0.2,1.3-1c0-0.4-0.5-1.1-0.7-1.1c-2.8,0.1-3.6-3.1-5.9-3.8
		c-1.8-1.6-3.7-2.9-5.9-3.8c-0.6-0.4-1.2-0.9-1.8-1.3c-2.5-0.2-4,1.8-5.9,2.8c-0.6,0.4-1.1,0.7-1.7,1.1c-0.2,0-0.4-0.1-0.6-0.2
		c-0.3-0.8,0.2-1.3,0.8-1.7c0.6-0.4,1.2-0.9,1.8-1.3c1.2-0.5,2.9-0.8,2.9-2.2c0-1.2-1.7-1.5-2.9-1.8c-0.4-0.7-0.9-1.3-1.8-1.4
		C36.5,345.1,34.7,343.6,32.5,342.8z"/>
	<path class="st2" d="M32.5,342.8c2.2,0.9,4.1,2.3,5.9,3.8c0,2.3,0,4.5,0,6.8c-0.6,0.4-1,0.9-0.8,1.7c0,0,0,0,0,0
		c-1.4-0.3-2.4,0.3-3,1.5l0,0c-0.7,0.2-1.5,0.4-2.2,0.7C32.5,352.3,32.5,347.6,32.5,342.8z"/>
	<path class="st2" d="M24.2,337.1c2.1,1.3,4.4,2.4,6.1,4.3c0,4.9,0,9.8,0,14.7C27.6,349.9,24,344.1,24.2,337.1z"/>
	<path class="st2" d="M61.4,340.6c1.5-1.3,2.9-2.5,4.9-3c0.3,5.9-2.4,11-4.3,17.3C61.3,349.5,61.2,345.1,61.4,340.6z"/>
	<path class="st2" d="M59.3,358.1c-1.4-0.6-2.7-1.2-3.7-2.4c0-3.8,0-7.6-0.1-11.4c1.1-1,2.3-1.9,3.8-2.4
		C59.3,347.4,59.3,352.7,59.3,358.1z"/>
	<path class="st2" d="M45.9,348.5c-2.6,0.3-4-1.9-5.9-3c0-4.5,0.1-9,0.1-13.6c1.9,0,3.8,0,5.7,0C45.8,337.5,45.8,343,45.9,348.5z"/>
	<path class="st2" d="M53.5,343.6c-2,1.3-4,2.5-5.9,3.8c0-5.1-0.1-10.3-0.1-15.4c2,0,4,0,5.9,0C53.4,335.9,53.5,339.7,53.5,343.6z"
		/>
	<path class="st2" d="M38.2,344.4c-2-0.9-3.5-2.7-5.8-2.9c0-0.4-0.1-0.8-0.1-1.2c0-2.8,0-5.5,0.1-8.3c2,0,4,0,5.9,0
		C38.3,336.1,38.3,340.3,38.2,344.4z"/>
	<path class="st0" d="M30.3,307.1c0.7-0.7,1.3-1.4,2-2.1c0.1,8.4,0.1,16.8,0.2,25.2c-0.7,0-1.4,0-2.1,0
		C30.3,322.6,30.3,314.9,30.3,307.1z"/>
	<path class="st0" d="M59.5,306.3c0.7,0.4,1.3,0.8,2,1.2c0,7.6,0,15.2-0.1,22.8c-0.7,0-1.3,0-2,0C59.4,322.3,59.5,314.3,59.5,306.3z
		"/>
	<path class="st2" d="M30.2,338.8c-2.3-0.9-4.3-2.3-6.1-4c-2-1.9-0.8-2.7,1.1-2.9c1.7-0.2,3.4,0,5.2,0.1
		C30.3,334.3,30.3,336.6,30.2,338.8z"/>
	<path class="st2" d="M55.5,332c1.3,0,2.6,0,4,0c0,2.6,0.1,5.2,0.1,7.8c-1.3,0.8-2.6,1.6-3.9,2.4C55.5,338.8,55.5,335.4,55.5,332z"
		/>
	<path class="st2" d="M53.3,354.3c-1.5-0.9-3.2-1.8-4.6-2.8c-0.8-0.6-2.3-1.2-1-2.7c1.9-1,3.7-1.9,5.6-2.9
		C53.3,348.6,53.3,351.5,53.3,354.3z"/>
	<path class="st0" d="M55.5,332c0,3.4,0.1,6.8,0.1,10.2c-0.7,0.5-1.4,1-2.1,1.4c0-3.9,0-7.8-0.1-11.7C54.1,332,54.8,332,55.5,332z"
		/>
	<path class="st2" d="M61.4,332c0.7-0.1,1.5-0.1,2.2-0.2c1.3-0.1,2.5,0,3,1.5c0.5,1.4-0.6,2.1-1.4,2.7c-1.1,0.9-2.5,1.6-3.7,2.4
		C61.5,336.3,61.4,334.1,61.4,332z"/>
	<path class="st0" d="M47.5,332c0,5.1,0.1,10.3,0.1,15.4c-0.1,0.2-0.2,0.4-0.3,0.7c-0.5,0.1-0.9,0.3-1.4,0.4c0-5.5-0.1-11-0.1-16.6
		C46.3,332,46.9,332,47.5,332z"/>
	<path class="st0" d="M53.3,354.3c0-2.8,0-5.6,0-8.4c0.5-0.8,1.3-1.3,2.2-1.4c0,3.8,0,7.6,0.1,11.4
		C54.8,355.2,54.1,354.8,53.3,354.3z"/>
	<path class="st0" d="M38.2,344.4c0-4.1,0.1-8.3,0.1-12.4c0.6,0,1.2,0,1.7,0c0,4.5-0.1,9-0.1,13.6C39.4,345.1,38.8,344.8,38.2,344.4
		z"/>
	<path class="st0" d="M30.2,338.8c0-2.3,0.1-4.6,0.1-6.8c0.7,0,1.3,0,2,0c0,2.8,0,5.5-0.1,8.3C31.4,340.2,30.8,339.5,30.2,338.8z"/>
	<path class="st0" d="M61.4,332c0,2.1,0.1,4.3,0.1,6.4c-0.7,0.5-1.3,0.9-2,1.4c0-2.6-0.1-5.2-0.1-7.8C60.1,332,60.7,332,61.4,332z"
		/>
	<path class="st2" d="M45.7,362.3c-1.9,0-3.8,0-5.7,0c0-2.7-0.1-5.4-0.1-8.1c1.9-1,3.4-3.1,5.9-2.8C45.8,355,45.8,358.6,45.7,362.3z
		"/>
	<path class="st2" d="M47.6,352.7c2.2,0.9,4.1,2.3,5.9,3.8c-0.1,1.9-0.1,3.9-0.2,5.8c-1.9,0-3.9,0-5.8,0
		C47.5,359.1,47.6,355.9,47.6,352.7z"/>
	<path class="st2" d="M32.3,359.3c0.5-1.2,2.5-1.1,2.3-2.8c0,0,0,0,0,0c1.4,0.3,2.4-0.3,3-1.5c0,0,0,0,0,0c0.2,0.2,0.4,0.2,0.6,0.2
		c0,2.3,0,4.7,0,7c-0.3,0-0.7,0-1,0C35.6,361.3,33.4,361.2,32.3,359.3z"/>
	<path class="st0" d="M53.3,362.3c0.1-1.9,0.1-3.9,0.2-5.8c2.3,0.7,3.1,3.8,5.9,3.8c0.2,0,0.7,0.7,0.7,1.1c0.1,0.8-0.6,1-1.3,1
		C57,362.4,55.2,362.3,53.3,362.3z"/>
	<path class="st0" d="M47.6,352.7c0,3.2-0.1,6.4-0.1,9.6c-0.6,0-1.2,0-1.7,0c0-3.7,0-7.3,0.1-11C46.4,351.8,47,352.2,47.6,352.7z"/>
	<path class="st0" d="M32.3,359.3c1.1,1.9,3.3,2,4.9,3c-1.5,0-3,0.2-4.4,0.1c-1.1-0.1-2.8,0.8-3.1-0.9
		C29.5,360.1,31.2,359.8,32.3,359.3z"/>
	<path class="st0" d="M38.2,362.3c0-2.3,0-4.7,0-7c0.6-0.4,1.1-0.7,1.7-1.1c0,2.7,0.1,5.4,0.1,8.1C39.5,362.3,38.8,362.3,38.2,362.3
		z"/>
	<path class="st0" d="M38.4,353.3c0-2.3,0-4.5,0-6.8c0.9,0.1,1.4,0.7,1.8,1.4c0,1.4,0,2.7,0,4.1C39.6,352.5,39,352.9,38.4,353.3z"/>
	<path class="st2" d="M40.2,352c0-1.4,0-2.7,0-4.1c1.2,0.3,2.8,0.6,2.9,1.8C43.1,351.2,41.4,351.6,40.2,352z"/>
	<path class="st1" d="M37.7,355c-0.6,1.2-1.6,1.8-3,1.5C35.3,355.3,36.2,354.7,37.7,355z"/>
</g>
</svg>
