<svg width="136" height="71" viewBox="0 0 136 71" fill="none" xmlns="http://www.w3.org/2000/svg">
<path d="M12.4457 17.9337C12.122 17.8317 10.9406 17.8608 10.7464 17.9337C10.5522 18.0065 8.94993 19.0555 8.94993 19.0555C8.94993 19.0555 7.34768 18.0065 7.15347 17.9337C6.95925 17.8608 5.7778 17.8317 5.45411 17.9337C5.13043 18.0357 3.07502 18.6622 3.02647 18.7787C2.97791 18.8953 0 32.2991 0 42.7745C0 53.2499 1.8612 67.965 3.07502 69.0578C3.07502 69.0578 5.30846 70.1213 7.00781 70.0339L8.93374 68.8246L10.8597 70.0339C12.559 70.1359 14.7925 69.0578 14.7925 69.0578C16.0063 67.965 17.8675 53.2645 17.8675 42.7745C17.8675 32.2846 14.9219 18.8953 14.8734 18.7787C14.8248 18.6622 12.7694 18.0211 12.4457 17.9337Z" fill="#6992B9"/>
<path d="M3.09104 69.0436C3.09104 69.0436 5.32447 70.1072 7.02383 70.0197L8.94976 68.8105L10.8757 70.0197C12.575 70.1217 14.8085 69.0436 14.8085 69.0436C15.7633 68.184 17.0905 59.0344 17.6407 50.0742H0.258789C0.809056 59.049 2.15235 68.1986 3.09104 69.0436Z" fill="#AC9224"/>
<path d="M4.2566 66.8437C4.2566 66.8437 6.05306 67.7033 7.41254 67.6159L8.96623 66.6397L10.5199 67.6159C11.8794 67.6887 13.6759 66.8437 13.6759 66.8437C14.4365 66.1589 15.5209 57.2862 15.9417 50.0889H1.97461C2.41159 57.2716 3.49594 66.1589 4.2566 66.8437Z" fill="#F1CC31"/>
<path d="M10.7462 17.9337C10.7462 17.9337 10.73 17.9337 10.73 17.9483C10.9889 18.0648 12.5103 19.0555 12.5103 19.0555C12.5103 19.0555 13.1414 18.6476 13.6593 18.3125C13.1414 18.1377 12.6074 17.9774 12.4617 17.9337C12.1218 17.8317 10.9404 17.8608 10.7462 17.9337Z" fill="#6992B9"/>
<path opacity="0.1" d="M3.56055 42.7745C3.56055 32.2991 6.52228 18.8953 6.58701 18.7787C6.61938 18.7204 7.20202 18.5019 7.80084 18.3125C7.49334 18.1231 7.23439 17.9628 7.15347 17.9337C6.95925 17.8608 5.7778 17.8317 5.45411 17.9337C5.13043 18.0357 3.07502 18.6622 3.02647 18.7787C2.97791 18.8953 0 32.2991 0 42.7745C0 53.2499 1.8612 67.965 3.07502 69.0578C3.07502 69.0578 5.30846 70.1213 7.00781 70.0339L7.80084 69.5385C7.10491 69.3054 6.61939 69.0723 6.61939 69.0723C5.42175 67.965 3.56055 53.2499 3.56055 42.7745Z" fill="#24303A"/>
<path d="M45.0243 11.4453C42.2682 14.176 37.3284 21.2666 37.9157 36.866C38.5332 53.0991 41.214 63.7351 42.4941 67.9593C42.8706 69.1813 44.0002 70.0261 45.2803 70.0261H48.3225C49.6027 70.0261 50.7322 69.1813 51.1087 67.9593C52.3889 63.7351 55.0696 53.0991 55.6871 36.866C56.2745 21.2817 51.3346 14.176 48.5786 11.4453C47.5996 10.4798 46.0183 10.4798 45.0243 11.4453Z" fill="#E17530"/>
<path d="M52.3889 33.4868C51.5757 35.0106 50.2202 36.4438 49.0455 37.4998C47.7804 38.6464 45.8527 38.6464 44.5876 37.4998C43.4129 36.4438 42.0574 35.0256 41.2441 33.4868C40.958 32.9437 40.1447 33.0946 40.0694 33.698C39.6929 36.3683 39.4821 42.1314 40.9881 53.8234C41.0484 54.276 41.5604 54.5324 41.952 54.276C43.2622 53.4462 45.7472 51.9527 46.8165 51.9527C47.8858 51.9527 50.3708 53.4462 51.6811 54.276C52.0726 54.5174 52.5847 54.276 52.6449 53.8234C54.1661 42.1465 53.9402 36.3834 53.5636 33.698C53.4733 33.0946 52.6751 32.9437 52.3889 33.4868Z" fill="#F1CC31"/>
<path d="M46.8012 19.0038C47.1339 19.0038 47.4036 18.0447 47.4036 16.8615C47.4036 15.6784 47.1339 14.7192 46.8012 14.7192C46.4684 14.7192 46.1987 15.6784 46.1987 16.8615C46.1987 18.0447 46.4684 19.0038 46.8012 19.0038Z" fill="#A35725"/>
<path d="M46.8015 68.3063C47.0927 68.3063 47.3286 66.773 47.3286 64.8817C47.3286 62.9903 47.0927 61.457 46.8015 61.457C46.5104 61.457 46.2744 62.9903 46.2744 64.8817C46.2744 66.773 46.5104 68.3063 46.8015 68.3063Z" fill="#A35725"/>
<path opacity="0.1" d="M48.5334 11.415C47.5394 10.4796 46.0032 10.4947 45.0243 11.4603C42.2682 14.1909 37.3284 21.2815 37.9157 36.881C38.5332 53.114 41.214 63.75 42.4941 67.9742C42.8706 69.1962 44.0002 70.041 45.2803 70.041H48.3225C48.3978 70.041 48.4581 70.041 48.5334 70.0259C47.3436 69.9354 46.3044 69.1358 45.958 67.9742C44.6779 63.75 41.9971 53.114 41.3796 36.881C40.8073 21.2815 45.7321 14.1758 48.4882 11.4452C48.5033 11.4301 48.5183 11.4301 48.5334 11.415Z" fill="#331F11"/>
<path d="M81.7941 7.71453C82.0585 7.1506 82.5695 6.72767 83.1687 6.58669L85.9355 5.96989C86.3055 5.88178 86.6756 5.88178 87.0281 5.96989L89.7948 6.58669C90.4116 6.72767 90.9227 7.13298 91.1694 7.71453C92.5087 10.6751 96.5972 20.2795 97.073 28.4916C97.6193 37.9549 95.4869 62.2918 92.1739 68.6007C91.9448 69.0236 91.5747 69.3408 91.0989 69.4642L89.2309 69.9753C88.5612 70.1515 87.8563 69.9224 87.4158 69.3761L87.1514 69.0412C86.799 68.5831 86.0941 68.5831 85.7416 69.0412L85.4773 69.3761C85.0543 69.9224 84.3318 70.1691 83.6621 69.9753L81.7941 69.4642C81.3359 69.3408 80.9482 69.0236 80.7191 68.6007C77.4061 62.2742 75.2737 37.9373 75.82 28.4916C76.3664 20.2618 80.4548 10.6575 81.7941 7.71453Z" fill="#E6E1E1"/>
<path d="M85.4245 23.4513C86.0237 22.8698 86.9753 22.8698 87.5568 23.4513L94.1653 29.9364C94.4649 30.2184 94.6235 30.6237 94.6235 31.029V40.3161C94.6235 40.3514 94.6235 40.3866 94.6235 40.4395C94.553 41.3382 93.5662 41.8493 92.7555 41.4616L87.1868 38.7653C86.9753 38.6596 86.7286 38.6067 86.4995 38.6067C86.2528 38.6067 86.0237 38.6596 85.8122 38.7653L80.2434 41.4616C79.4328 41.8493 78.4459 41.3382 78.3754 40.4395C78.3754 40.4042 78.3754 40.369 78.3754 40.3161V31.029C78.3754 30.6237 78.534 30.236 78.8336 29.9364L85.4245 23.4513Z" fill="#A1A5D2"/>
<path d="M86.0237 43.0826C86.288 42.8006 86.711 42.8006 86.9753 43.0826L93.9539 50.5017C94.1125 50.6603 94.1654 50.8894 94.1125 51.1009L90.4646 65.569C90.3941 65.851 90.1298 66.0625 89.8302 66.0625H86.4819H83.1336C82.834 66.0625 82.5697 65.851 82.4992 65.569L78.8513 51.1009C78.7984 50.8894 78.8513 50.6603 79.0099 50.5017L86.0237 43.0826Z" fill="#A1A5D2"/>
<g opacity="0.1">
<path d="M87.0456 5.96986L89.8124 6.58665C90.4292 6.72763 90.9402 7.13295 91.187 7.71449C92.5263 10.6751 96.6147 20.2794 97.0906 28.4916C97.6369 37.9549 95.5045 62.2917 92.1915 68.6006C91.9624 69.0236 91.5923 69.3408 91.1165 69.4642L89.2485 69.9752C88.5788 70.1514 87.8739 69.9223 87.4333 69.376L87.169 69.0412C87.028 68.8474 86.8342 68.7416 86.6227 68.7064C86.6403 68.6711 86.6756 68.6359 86.6932 68.6006C90.0062 62.2741 92.1386 37.9373 91.5923 28.4916C91.1165 20.2794 87.028 10.6751 85.6887 7.71449C85.4244 7.15057 84.9133 6.72763 84.3141 6.58665L83.7502 6.46329L85.953 5.96986C86.3055 5.89937 86.6756 5.89937 87.0456 5.96986Z" fill="#3F3E3E"/>
<path d="M85.3896 69.5347C84.9667 69.9576 84.3323 70.1338 83.7507 69.9929H83.7684L85.3896 69.5347Z" fill="#3F3E3E"/>
<path d="M81.706 69.0413L81.9703 69.3762C82.0056 69.4291 82.0585 69.4819 82.1113 69.5348L81.8646 69.4643C81.4417 69.3409 81.0892 69.0766 80.8601 68.7241C81.1597 68.6537 81.4945 68.777 81.706 69.0413Z" fill="#3F3E3E"/>
</g>
<path d="M128.544 0.781805C127.304 -0.260602 125.625 -0.260602 124.385 0.781805C122.706 2.19212 120.44 4.95143 119.294 10.0562C117.428 18.3494 115.468 48.5332 119.707 67.2045C120.08 68.8755 121.4 70.0405 122.906 70.0405H130.024C131.53 70.0405 132.836 68.8755 133.223 67.2045C137.461 48.5332 135.515 18.3494 133.636 10.0562C132.489 4.9361 130.223 2.17679 128.544 0.781805Z" fill="#6999E9"/>
<path d="M126.478 21.3848C123.199 21.3848 120.533 24.4507 120.533 28.2217V57.3478C120.533 59.7239 122.199 61.64 124.265 61.64H128.677C130.743 61.64 132.409 59.7239 132.409 57.3478V28.2217C132.409 24.4507 129.757 21.3848 126.478 21.3848Z" fill="#8FBAFC"/>
<path d="M126.478 25.8916C123.932 25.8916 121.866 28.2677 121.866 31.1956V53.8066C121.866 55.6462 123.159 57.1331 124.759 57.1331H128.184C129.784 57.1331 131.077 55.6462 131.077 53.8066V31.1956C131.09 28.2677 129.024 25.8916 126.478 25.8916Z" fill="#4E70A9"/>
<path d="M126.478 35.0127C125.905 35.0127 125.438 35.5492 125.438 36.2084V38.2472C125.438 38.9064 125.905 39.4429 126.478 39.4429C127.051 39.4429 127.517 38.9064 127.517 38.2472V36.2084C127.504 35.5492 127.051 35.0127 126.478 35.0127Z" fill="#3E5983"/>
<path d="M126.478 67.4958C126.957 67.4958 127.345 67.0497 127.345 66.4993C127.345 65.949 126.957 65.5029 126.478 65.5029C126 65.5029 125.612 65.949 125.612 66.4993C125.612 67.0497 126 67.4958 126.478 67.4958Z" fill="#3E5983"/>
<path d="M126.691 19.4223L128.464 17.3835C128.517 17.3222 128.517 17.2149 128.464 17.1536L126.665 15.0841L127.931 13.6278C127.971 13.5818 127.984 13.5205 127.958 13.4592C127.931 13.3978 127.891 13.3672 127.824 13.3672H125.092C125.039 13.3672 124.985 13.4132 124.959 13.4592C124.932 13.5205 124.945 13.5818 124.985 13.6278L126.252 15.0841L124.452 17.1536C124.399 17.2149 124.399 17.3222 124.452 17.3835L126.225 19.4223L123.559 22.4882C123.519 22.5342 123.506 22.5955 123.532 22.6569C123.559 22.7182 123.599 22.7488 123.666 22.7488H129.237C129.291 22.7488 129.344 22.7029 129.371 22.6569C129.397 22.5955 129.384 22.5342 129.344 22.4882L126.691 19.4223ZM125.438 13.6738H127.504L126.478 14.8541L125.438 13.6738ZM124.772 17.2762L126.465 15.3294L128.158 17.2762L126.465 19.2231L124.772 17.2762ZM124.026 22.4269L126.478 19.6063L128.931 22.4269H124.026Z" fill="#4E70A9"/>
<path opacity="0.1" d="M124.399 0.781932C122.72 2.19225 120.454 4.95156 119.307 10.0563C117.441 18.3495 115.482 48.5333 119.721 67.2047C120.094 68.8756 121.413 70.0406 122.92 70.0406H126.265C124.759 70.0406 123.453 68.8756 123.066 67.2047C118.828 48.5333 120.774 18.3495 122.653 10.0563C123.813 4.93623 126.065 2.17692 127.745 0.781932C127.878 0.674626 128.011 0.582648 128.144 0.490671C126.972 -0.245145 125.505 -0.153168 124.399 0.781932Z" fill="#1E2838"/>
</svg>
